<svg xmlns="http://www.w3.org/2000/svg" width="900" height="1350" viewBox="0 0 900 1350">
<defs><linearGradient id="bg" x1="0" y1="0" x2="0" y2="1"><stop stop-color="#eef8ff"/><stop offset="1" stop-color="#f8fbff"/></linearGradient><filter id="s"><feDropShadow dx="0" dy="8" stdDeviation="12" flood-opacity=".12"/></filter></defs>
<rect width="900" height="1350" rx="42" fill="url(#bg)"/>
<text x="70" y="92" font-family="Arial,sans-serif" font-size="42" font-weight="700" fill="#12233f">Sungrow Grid PID</text>
<text x="70" y="132" font-family="Arial,sans-serif" font-size="23" fill="#4d6786">Умный контроль экспорта в сеть</text>
<rect x="70" y="175" width="760" height="120" rx="25" fill="#fff" filter="url(#s)"/>
<circle cx="112" cy="220" r="10" fill="#22c55e"/><text x="138" y="228" font-family="Arial" font-size="22" font-weight="700" fill="#17233a">PID активен</text>
<text x="138" y="260" font-family="Arial" font-size="17" fill="#39a66a">Работает нормально</text>
<rect x="690" y="205" width="82" height="44" rx="22" fill="#28c76f"/><circle cx="749" cy="227" r="17" fill="#fff"/>
<text x="70" y="350" font-family="Arial" font-size="21" fill="#3b506a">Целевой экспорт</text><text x="620" y="350" font-family="Arial" font-size="34" font-weight="700" fill="#0878d1">15 000 W</text>
<rect x="70" y="375" width="760" height="10" rx="5" fill="#c8d9e8"/><rect x="70" y="375" width="455" height="10" rx="5" fill="#1298df"/><circle cx="525" cy="380" r="16" fill="#0878d1"/>
<text x="70" y="415" font-family="Arial" font-size="15" fill="#7890a8">0 W</text><text x="760" y="415" font-family="Arial" font-size="15" fill="#7890a8">25 000 W</text>
<g font-family="Arial"><rect x="70" y="460" width="360" height="120" rx="24" fill="#fff" filter="url(#s)"/><text x="100" y="500" font-size="17" fill="#6b7f95">Реальный экспорт в сеть</text><text x="100" y="548" font-size="31" font-weight="700" fill="#17233a">15 020 W</text>
<rect x="470" y="460" width="360" height="120" rx="24" fill="#fff" filter="url(#s)"/><text x="500" y="500" font-size="17" fill="#6b7f95">Команда PID на заряд</text><text x="500" y="548" font-size="31" font-weight="700" fill="#f59e0b">4 800 W</text>
<rect x="70" y="610" width="360" height="120" rx="24" fill="#fff" filter="url(#s)"/><text x="100" y="650" font-size="17" fill="#6b7f95">Отклонение</text><text x="100" y="698" font-size="31" font-weight="700" fill="#22a765">+20 W</text>
<rect x="470" y="610" width="360" height="120" rx="24" fill="#fff" filter="url(#s)"/><text x="500" y="650" font-size="17" fill="#6b7f95">Генерация PV</text><text x="500" y="698" font-size="31" font-weight="700" fill="#0878d1">32 400 W</text></g>
<text x="70" y="795" font-family="Arial" font-size="28" font-weight="700" fill="#17233a">Как это работает?</text>
<g filter="url(#s)" font-family="Arial"><rect x="70" y="835" width="220" height="155" rx="26" fill="#fff"/><text x="180" y="890" text-anchor="middle" font-size="42">☀️</text><text x="180" y="930" text-anchor="middle" font-size="18" font-weight="700" fill="#17233a">Солнечные панели</text><text x="180" y="965" text-anchor="middle" font-size="24" font-weight="700" fill="#0878d1">32 400 W</text>
<rect x="340" y="835" width="220" height="155" rx="26" fill="#fff"/><text x="450" y="890" text-anchor="middle" font-size="42">⚡</text><text x="450" y="930" text-anchor="middle" font-size="18" font-weight="700" fill="#17233a">Инвертор Sungrow</text><text x="450" y="960" text-anchor="middle" font-size="15" fill="#6b7f95">гибридный</text>
<rect x="610" y="835" width="220" height="155" rx="26" fill="#fff"/><text x="720" y="890" text-anchor="middle" font-size="42">🏠</text><text x="720" y="930" text-anchor="middle" font-size="18" font-weight="700" fill="#17233a">Дом</text><text x="720" y="965" text-anchor="middle" font-size="24" font-weight="700" fill="#17233a">10 000 W</text>
<rect x="205" y="1060" width="220" height="155" rx="26" fill="#fff"/><text x="315" y="1115" text-anchor="middle" font-size="42">🔋</text><text x="315" y="1155" text-anchor="middle" font-size="18" font-weight="700" fill="#17233a">Батарея</text><text x="315" y="1190" text-anchor="middle" font-size="24" font-weight="700" fill="#f59e0b">4 800 W</text>
<rect x="475" y="1060" width="220" height="155" rx="26" fill="#fff"/><text x="585" y="1115" text-anchor="middle" font-size="42">🔌</text><text x="585" y="1155" text-anchor="middle" font-size="18" font-weight="700" fill="#17233a">Сеть</text><text x="585" y="1190" text-anchor="middle" font-size="24" font-weight="700" fill="#22a765">15 020 W</text></g>
<g stroke="#36d17d" stroke-width="8" stroke-linecap="round"><path d="M290 912H330"/><path d="M560 912H600"/><path d="M450 990v42"/><path d="M560 990l25 42"/></g>
<text x="70" y="1290" font-family="Arial" font-size="18" fill="#6b7f95">Status: Running</text><text x="755" y="1290" font-family="Arial" font-size="18" fill="#6b7f95">v1.4.0</text>
</svg>